<svg xmlns="http://www.w3.org/2000/svg" viewBox="0 0 2000 1001">
  <rect width="2000" height="1001" fill="none"/>
  <g fill="#D1D5DB" stroke="none">
    <!-- Simplified world map continents -->
    <!-- North America -->
    <path d="M150,200 L180,180 Q220,170 260,165 L290,170 L330,200 L340,230 L335,260 Q320,285 300,300 L270,310 L240,315 L210,310 Q185,295 170,270 L160,240 Z"/>
    <path d="M200,150 L230,140 L260,145 L285,160 L295,180 L285,200 L260,190 L230,185 Z"/>
    <path d="M180,100 L220,85 L250,90 L270,105 L275,125 L265,140 L240,135 L210,125 L190,115 Z"/>
    
    <!-- South America -->
    <path d="M300,400 L320,390 L340,400 L355,430 L360,470 L355,510 L345,545 L330,570 L310,585 L290,580 L280,560 L275,530 L280,490 L285,450 Z"/>
    
    <!-- Europe -->
    <path d="M520,180 L560,170 L600,175 L640,185 L665,200 L675,220 L665,240 L640,235 L600,230 L560,225 L530,215 Z"/>
    <path d="M540,150 L570,145 L595,150 L610,165 L610,180 L595,185 L570,180 L550,170 Z"/>
    
    <!-- Africa -->
    <path d="M520,300 L560,290 L600,295 L640,310 L670,340 L685,380 L690,420 L685,460 L670,500 L645,530 L610,545 L570,540 L535,520 L510,485 L500,440 L505,390 L515,340 Z"/>
    
    <!-- Asia -->
    <path d="M700,180 L780,170 L860,175 L940,190 L1020,210 L1090,235 L1140,260 L1170,290 L1185,320 L1180,350 L1160,370 L1120,375 L1060,370 L990,360 L920,345 L850,330 L780,315 L720,295 L690,270 L680,240 Z"/>
    <path d="M1100,340 L1140,330 L1180,340 L1210,360 L1220,390 L1210,420 L1180,430 L1140,425 L1110,410 Z"/>
    <path d="M1050,270 L1090,260 L1130,265 L1160,280 L1170,305 L1160,330 L1130,335 L1090,330 L1060,315 Z"/>
    <path d="M900,220 L940,210 L980,215 L1010,230 L1020,255 L1010,280 L980,285 L940,280 L910,265 Z"/>
    
    <!-- Australia -->
    <path d="M1350,550 L1400,540 L1450,545 L1490,565 L1510,595 L1515,630 L1505,660 L1480,680 L1440,685 L1390,675 L1350,655 L1330,625 L1330,590 Z"/>
    
    <!-- Additional islands and details -->
    <circle cx="1420" cy="380" r="15"/>
    <circle cx="1480" cy="320" r="20"/>
    <ellipse cx="1550" cy="250" rx="40" ry="25"/>
    <circle cx="950" cy="450" r="18"/>
    <circle cx="1020" cy="470" r="22"/>
    <ellipse cx="1150" cy="480" rx="35" ry="20"/>
    
    <!-- Greenland -->
    <path d="M320,50 L360,45 L395,55 L410,75 L408,100 L390,115 L360,118 L330,110 L315,90 Z"/>
    
    <!-- Iceland -->
    <circle cx="460" cy="140" r="12"/>
    
    <!-- New Zealand -->
    <ellipse cx="1680" cy="720" rx="25" ry="60"/>
    <ellipse cx="1720" cy="760" rx="20" ry="45"/>
    
    <!-- Madagascar -->
    <ellipse cx="700" cy="520" rx="15" ry="50"/>
    
    <!-- UK and Ireland -->
    <path d="M500,185 L515,180 L525,185 L525,200 L515,205 L500,200 Z"/>
    <ellipse cx="485" cy="192" rx="8" ry="12"/>
    
    <!-- Scandinavia -->
    <path d="M540,120 L560,110 L580,115 L595,125 L600,145 L590,160 L570,165 L550,160 L535,145 Z"/>
    
    <!-- Japan -->
    <ellipse cx="1420" cy="300" rx="15" ry="40" transform="rotate(20 1420 300)"/>
    
    <!-- Caribbean -->
    <circle cx="280" cy="320" r="8"/>
    <circle cx="295" cy="325" r="6"/>
    <circle cx="310" cy="330" r="5"/>
  </g>
</svg>
